<?xml version="1.0" encoding="UTF-8"?>
<svg id="Layer_2" data-name="Layer 2" xmlns="http://www.w3.org/2000/svg" viewBox="0 0 2320.16 1725.82">
  <defs>
    <style>
      .cls-1 {
        fill: #00caf9;
      }
    </style>
  </defs>
  <g id="Layer_1-2" data-name="Layer 1">
    <path class="cls-1" d="m481.25,1550.62c-24.42-74.52-50.42-148.52-78-221.92-27.59-73.41-56.77-146.22-87.45-218.39-17.35-40.81-35.21-81.42-53.54-121.8-1.69-3.72-7-4.55-10.26-2.69-3.82,2.17-4.35,6.59-2.69,10.26,32.28,71.11,63.05,142.89,92.25,215.32,29.08,72.13,56.62,144.88,82.61,218.19,14.71,41.5,28.91,83.18,42.63,125.02,2.99,9.13,17.48,5.22,14.46-3.99h0Z"/>
    <path class="cls-1" d="m740.19,1546.96c-36.63-76.86-73.28-153.71-111.54-229.78-38.22-75.98-78.04-151.18-121.01-224.59-42.98-73.44-89.18-144.97-139.56-213.56-50.6-68.89-104.85-135.03-160.94-199.5s-114.23-127.54-172.46-190.29c-7.33-7.9-14.67-15.8-22.01-23.7-6.58-7.09-17.17,3.54-10.61,10.61,58.26,62.72,116.52,125.46,173.15,189.66,56.36,63.89,111.16,129.24,162.43,197.3,51.05,67.77,98.1,138.38,141.7,211.15,43.53,72.66,83.79,147.23,122.26,222.68,38.53,75.56,75.26,152.01,111.78,228.56,4.62,9.67,9.23,19.35,13.84,29.03,4.15,8.71,17.09,1.11,12.95-7.57h0Z"/>
    <path class="cls-1" d="m826.26,1563.91c-25.11-111.22-50.23-222.43-75.34-333.65-25.11-111.22-50.23-222.43-75.34-333.65-12.17-53.89-23.15-108.23-36.97-161.72-6.27-24.27-13.92-48.27-24.82-70.89s-25.43-42.75-41.55-61.71c-33.83-39.78-71.67-76.31-106.95-114.81s-71.13-79.03-105.63-119.47c-69.79-81.81-136.64-166.11-200.35-252.74-7.94-10.8-15.83-21.64-23.68-32.5-5.6-7.75-18.62-.27-12.95,7.57,62.35,86.34,127.7,170.51,195.97,252.25,68.26,81.74,139.71,160.57,213.18,237.63,17.46,18.31,34.82,36.94,49.31,57.75s25.44,43.93,33.49,68.16,13.63,48.92,19.22,73.67c6.17,27.32,12.34,54.65,18.51,81.97,25,110.74,50.01,221.48,75.01,332.21,25,110.74,50.01,221.48,75.01,332.21,3.14,13.9,6.28,27.8,9.42,41.71,2.13,9.41,16.59,5.43,14.46-3.99h0Z"/>
    <path class="cls-1" d="m954.17,1618.96c-1.28-115.8-2.73-231.6-4.27-347.4-.77-57.9-1.56-115.8-2.36-173.7-.78-56.45-1.15-113.08-9.18-169.07-7.87-54.96-24.39-108.08-42.72-160.34-18.86-53.75-38.55-107.22-57.89-160.8-19.35-53.62-38.7-107.24-58.05-160.87-18.87-52.29-37.02-104.93-58.12-156.37-20.04-48.84-43.35-96.06-72.09-140.39-27.67-42.7-59.41-82.77-93.95-120.11-8.69-9.4-17.58-18.62-26.61-27.69-6.82-6.85-17.43,3.75-10.61,10.61,72.84,73.21,133.56,156.83,175.82,251.28,22.2,49.62,40.18,101,58.62,152.09,19.35,53.62,38.7,107.24,58.05,160.87,19.32,53.54,38.66,107.08,57.96,160.63,18.39,51.01,36.62,102.31,48.02,155.42,11.88,55.31,14.26,111.83,15.21,168.22.97,57.21,1.6,114.42,2.37,171.63,1.53,114.19,3,228.38,4.3,342.57.16,14.48.33,28.95.49,43.43.11,9.65,15.11,9.67,15,0h0Z"/>
    <path class="cls-1" d="m1183.5,1612.23c-4.1-88.5.77-177.03,1.14-265.55.18-43.96-.77-87.96-4.55-131.77-3.71-43.02-10.47-85.71-18.51-128.12-16.24-85.65-35.66-170.51-48.12-256.86-12.43-86.13-20.09-172.96-23.12-259.92-3.04-87.21-1.39-174.58,4.99-261.61.79-10.82,1.67-21.64,2.6-32.46.83-9.62-14.17-9.56-15,0-7.51,86.94-10.39,174.27-8.51,261.52,1.86,86.81,8.39,173.51,19.54,259.62,11.19,86.41,28.59,171.42,45.89,256.75,8.63,42.57,16.71,85.33,21.89,128.48,5.24,43.59,7.32,87.49,7.81,131.38.99,88.53-4.33,177.02-2.2,265.55.26,11,.65,22,1.16,32.99.45,9.61,15.45,9.67,15,0h0Z"/>
    <path class="cls-1" d="m1313.45,1608.83c3.43-87.5,7.67-174.96,12.76-262.38,5.08-87.42,11-174.79,17.74-262.09s14.32-174.55,22.72-261.71c7.85-81.49,12.71-164.89,47.3-240.38,31.47-68.68,79.4-128.05,128.18-185.09,6.21-7.26,12.44-14.5,18.68-21.73s-4.29-17.93-10.61-10.61c-49.71,57.61-100.03,116.12-136.13,183.54-18.16,33.91-32.21,69.85-40.81,107.37-9.43,41.12-13.36,83.26-17.53,125.16-8.75,87.95-16.65,175.99-23.71,264.1-7.09,88.51-13.33,177.1-18.71,265.73-5.36,88.22-9.87,176.5-13.54,264.81-.46,11.09-.91,22.18-1.34,33.27-.38,9.65,14.62,9.64,15,0h0Z"/>
    <path class="cls-1" d="m1536.95,1718.59c-3-95.35-.48-190.87,8.16-285.88,8.64-95.1,23.46-189.63,44.87-282.7,21.05-91.54,48.5-181.61,82.58-269.15s70.79-164.15,114.58-242.01c43.72-77.74,92.87-152.43,147.03-223.29,6.77-8.86,13.63-17.64,20.56-26.38,5.94-7.49-4.61-18.17-10.61-10.61-56.08,70.7-107.27,145.2-152.91,223.06-45.44,77.52-85.34,158.22-119.53,241.31-35.59,86.49-64.69,175.61-87.35,266.34s-39.92,188.71-50.33,284.54c-10.44,96.09-14.58,192.85-12.9,289.49.2,11.76.5,23.52.87,35.27.3,9.63,15.3,9.67,15,0h0Z"/>
    <path class="cls-1" d="m1826.68,1678.45c-8.41-71.46-6.13-143.77,3.41-215,9.63-71.89,26.41-142.68,45.99-212.45,9.85-35.11,20.46-70.01,31.36-104.8,10.23-32.62,19.38-66.07,32.17-97.81,5.65-14.02,12.77-27.96,22.47-39.63s22.68-21.77,36.12-30.01c14.19-8.69,29.17-16.07,43.97-23.65,16.43-8.42,32.88-16.79,49.35-25.14,66.47-33.66,133.22-66.76,200-99.8,8.27-4.09,16.55-8.18,24.82-12.28s1.06-17.22-7.57-12.95c-67.67,33.47-135.34,66.93-202.75,100.92-32.94,16.61-66.11,32.91-98.61,50.38-28.41,15.27-53.91,33.92-70.13,62.44-16.5,29.02-24.95,62.47-35,94.07-11.13,35.03-22.08,70.12-32.39,105.39-20.65,70.64-38.83,142.17-50.38,214.91-11.47,72.23-16.5,145.68-10.51,218.69.73,8.92,1.63,17.82,2.68,26.71.47,4.02,3.11,7.5,7.5,7.5,3.69,0,7.98-3.45,7.5-7.5h0Z"/>
  </g>
</svg>